<?xml version="1.0" standalone="no"?>
<!DOCTYPE svg PUBLIC "-//W3C//DTD SVG 20010904//EN"
 "http://www.w3.org/TR/2001/REC-SVG-20010904/DTD/svg10.dtd">
<svg version="1.0" xmlns="http://www.w3.org/2000/svg"
 width="540.000000pt" height="540.000000pt" viewBox="0 0 540.000000 540.000000"
 preserveAspectRatio="xMidYMid meet">

<g transform="translate(0.000000,540.000000) scale(0.100000,-0.100000)"
fill="#000000" stroke="none">
<path d="M795 4936 c-84 -21 -147 -57 -210 -121 -65 -65 -105 -137 -124 -223
-16 -75 -16 -3709 0 -3784 37 -171 177 -311 347 -347 75 -16 3709 -16 3784 0
77 16 180 74 232 129 53 56 99 144 115 218 16 75 16 3708 0 3784 -16 77 -74
180 -129 232 -56 53 -144 99 -218 115 -80 17 -3728 14 -3797 -3z m792 -810
c68 -18 113 -47 162 -102 49 -55 71 -118 71 -199 0 -158 -101 -273 -268 -306
-171 -33 -326 31 -391 163 -27 53 -31 72 -31 142 0 95 21 150 78 209 88 91
243 129 379 93z m233 -1806 l0 -970 -345 0 -345 0 0 970 0 970 345 0 345 0 0
-970z m1220 836 l5 -129 29 41 c35 51 114 113 186 146 157 72 421 90 571 41
159 -53 293 -207 360 -413 54 -171 59 -242 59 -896 l0 -596 -335 0 -335 0 0
543 c0 553 -4 629 -39 711 -45 103 -150 174 -240 161 -103 -16 -194 -87 -234
-185 -22 -55 -22 -60 -25 -642 l-3 -588 -349 0 -350 0 0 970 0 970 348 -2 347
-3 5 -129z"/>
</g>
</svg>
